<?xml version="1.0" encoding="UTF-8" standalone="no"?>
<svg

        xmlns="http://www.w3.org/2000/svg"
        width="187.959mm"
        height="187.959mm"
        viewBox="0 0 187.95935 187.959"
        version="1.1"
        id="svg6728"
>
    <defs
            id="defs6722">
        <clipPath
                id="clipPath3833"
                clipPathUnits="userSpaceOnUse">
            <path

                    id="path3831"
                    d="M 0,500 H 500 V 0 H 0 Z"/>
        </clipPath>
        <clipPath
                id="clipPath3841"
                clipPathUnits="userSpaceOnUse">
            <path

                    id="path3839"
                    d="M 60.9238,379.388 H 212.767 V 317.267 H 60.9238 Z"/>
        </clipPath>
        <clipPath
                id="clipPath3869"
                clipPathUnits="userSpaceOnUse">
            <path

                    id="path3867"
                    d="m 120.891,447.103 h 65.773 V 345.854 h -65.773 z"/>
        </clipPath>
        <clipPath
                id="clipPath3805"
                clipPathUnits="userSpaceOnUse">
            <path

                    id="path3803"
                    d="M 0,500 H 500 V 0 H 0 Z"/>
        </clipPath>
        <clipPath
                id="clipPath3813"
                clipPathUnits="userSpaceOnUse">
            <path

                    id="path3811"
                    d="M 45.6152,372.206 H 228.075 V 310.085 H 45.6152 Z"/>
        </clipPath>
    </defs>


    <g

            id="layer5"

            style="display:inline"
            transform="translate(-8.9715881,-56.12933)">
        <rect
                style="opacity:1;fill:#181818;fill-opacity:1;stroke:#2d2d2d;stroke-width:5;stroke-linecap:round;stroke-linejoin:bevel;stroke-miterlimit:4;stroke-dasharray:none;stroke-dashoffset:0;stroke-opacity:1;paint-order:markers fill stroke"
                id="rect7658"
                width="182.95935"
                height="182.959"
                x="11.471588"
                y="58.62933"
                rx="48"
                ry="48"/>
    </g>
    <g


            id="layer1"
            style="display:inline"
            transform="translate(-8.9715881,-56.12933)">
        <g
                id="g3795"
                transform="matrix(0.83125276,0,0,-0.75157997,178.19347,192.55864)">
            <path
                    d="m 0,0 h -182.46 l 5.452,31.061 -5.452,31.06 H 0 l -5.452,-31.06 z"
                    style="fill:#f4554b;fill-opacity:1;fill-rule:nonzero;stroke:none"
                    id="path3797"
            />
        </g>
        <g
                transform="matrix(0.83125276,0,0,-0.75157997,-11.394672,425.61233)"
                id="g3799">
            <g
                    id="g3801"
                    clip-path="url(#clipPath3805)">
                <g
                        id="g3807">
                    <g
                            id="g3809"/>
                    <g
                            id="g3821">
                        <g
                                clip-path="url(#clipPath3813)"
                                id="g3819"
                                style="opacity:0.10000598">
                            <g
                                    transform="translate(228.0752,310.085)"
                                    id="g3817">
                                <path
                                        d="m 0,0 h -182.46 l 5.452,31.061 -5.452,31.06 H 0 l -5.452,-31.06 z"
                                        style="fill:#000000;fill-opacity:1;fill-rule:nonzero;stroke:none"
                                        id="path3815"
                                />
                            </g>
                        </g>
                    </g>
                </g>
            </g>
        </g>
        <g
                id="g3823"
                transform="matrix(0.83125276,0,0,-0.75157997,39.248408,140.47175)">
            <path
                    d="m 0,0 h 151.843 v -55.109 l -8.548,-7.012 H 8.547 L 0,-55.109 Z"
                    style="fill:#f4554b;fill-opacity:1;fill-rule:nonzero;stroke:none"
                    id="path3825"
            />
        </g>
        <g
                transform="matrix(0.83125276,0,0,-0.75157997,-11.394672,425.61233)"
                id="g3827">
            <g
                    id="g3829"
                    clip-path="url(#clipPath3833)">
                <g
                        id="g3835">
                    <g
                            id="g3837"/>
                    <g
                            id="g3849">
                        <g
                                clip-path="url(#clipPath3841)"
                                id="g3847"
                                style="opacity:0.369995">
                            <g
                                    transform="translate(60.9238,379.3882)"
                                    id="g3845">
                                <path
                                        d="m 0,0 h 151.843 v -55.109 l -8.548,-7.012 H 8.547 L 0,-55.109 Z"
                                        style="fill:#000000;fill-opacity:1;fill-rule:nonzero;stroke:none"
                                        id="path3843"
                                />
                            </g>
                        </g>
                    </g>
                </g>
                <g
                        id="g3851"
                        transform="translate(204.2192,312.0356)">
                    <path
                            d="m 0,0 -19.571,-12.67 c -29.087,-18.831 -66.519,-18.831 -95.606,0 L -134.748,0 V 79.584 H 0 Z"
                            style="fill:#005675;fill-opacity:1;fill-rule:nonzero;stroke:none"
                            id="path3853"
                    />
                </g>
                <g
                        id="g3855"
                        transform="translate(186.6636,396.5981)">
                    <path
                            d="m 0,0 c 0,-28.025 -22.305,-50.745 -49.819,-50.745 -27.513,0 -49.817,22.72 -49.817,50.745 0,28.025 22.304,50.744 49.817,50.744 C -22.305,50.744 0,28.025 0,0"
                            style="fill:#ffffff;fill-opacity:1;fill-rule:nonzero;stroke:none"
                            id="path3857"
                    />
                </g>
                <g
                        id="g3859"
                        transform="translate(150.8188,427.5835)">
                    <path
                            d="m 0,0 c -3.593,-0.272 -15.04,-6.417 -16.914,-7.434 -5.122,2.46 -17.419,4.999 -19.622,5.442 V 8.97 c 2.36,1.917 9.808,7.306 20.498,8.805 C -9.201,17.154 -2.783,14.743 -0.309,13.72 -0.272,12.19 -0.036,2.229 0,0 m 6.704,-31.97 c 1.669,-4.405 5.873,-15.934 5.873,-20.3 0,-0.045 0.017,-0.084 0.026,-0.126 -2.149,-3.489 -11.434,-11.191 -13.292,-12.995 -9.651,-0.523 -19.093,2.649 -21.802,3.652 -0.841,2.665 -4.582,14.433 -5.835,16.989 2.503,3.39 13.128,13.962 15.387,16.199 2.984,-1.211 17.024,-3.078 19.643,-3.419 m 9.133,16.503 c 2.128,0.012 8.913,-0.07 13.821,-1.481 1.45,-1.949 4.956,-7.643 5.359,-17.561 0,0 0.015,0.002 0.043,0.006 -3.081,-9.721 -7.142,-15.301 -8.902,-17.41 -2.439,0.359 -9.976,0.58 -12.365,0.643 -0.494,5.144 -4.331,15.635 -5.909,19.787 3.385,2.999 7.051,13.357 7.953,16.016 m -61.402,-23.905 c -0.037,0.134 -0.108,0.26 -0.229,0.348 -1.897,1.387 -3.838,13.841 -4.624,21.432 4.71,6.895 11.436,12.792 13.351,14.408 0.719,-0.143 14.839,-2.974 19.845,-5.519 0.318,-3.737 2.653,-15.717 3.508,-18.822 -2.001,-1.978 -12.791,-12.69 -15.588,-16.407 -2.83,1.136 -12.99,3.735 -16.263,4.56 m 29.027,58.359 C -27.901,17.307 -35.477,11.545 -37.605,9.746 -42.714,8.41 -49.468,4.331 -50.077,3.959 c -0.392,-0.42 -0.778,-0.847 -1.159,-1.279 -0.171,-0.196 -0.338,-0.396 -0.506,-0.595 -0.251,-0.294 -0.504,-0.586 -0.747,-0.888 -4.353,-5.745 -6.012,-12.46 -6.486,-14.83 l -3.616,-6.292 c -0.117,-0.54 -0.226,-1.083 -0.328,-1.629 -0.037,-0.201 -0.071,-0.404 -0.106,-0.606 -0.082,-0.465 -0.163,-0.932 -0.231,-1.402 0.051,0.044 0.099,0.096 0.135,0.158 l 4.741,8.251 c 1.522,-0.813 4.962,-1.943 6.686,-2.487 0.205,-1.984 1.955,-18.248 4.66,-21.895 -1.604,-2.025 -4.169,-9.86 -4.419,-13.732 -4.89,-0.172 -8.579,3.236 -8.617,3.272 -0.037,0.035 -0.082,0.053 -0.124,0.078 0.309,-0.782 0.635,-1.554 0.981,-2.315 v -10e-4 c 1.608,-1.041 4.22,-2.321 7.372,-2.321 0.165,0 0.332,0.008 0.499,0.015 1.268,-3.881 11.782,-11.959 14.243,-13.808 0.487,-2.087 1.804,-5.928 5.313,-10.029 0.843,-0.329 1.694,-0.638 2.557,-0.921 h 0.002 c -0.023,0.034 -0.038,0.072 -0.068,0.103 -4.141,4.14 -5.779,8.272 -6.419,10.614 5.68,1.075 10.733,4.367 12.61,5.711 2.371,-0.888 10.985,-3.854 20.258,-3.854 0.679,0 1.364,0.024 2.048,0.058 1.109,-4.125 3.776,-7.031 4.793,-8.022 -1.067,-1.177 -4.334,-4.177 -11.6,-6.488 -0.101,-0.032 -0.181,-0.091 -0.251,-0.16 0.896,0.111 1.782,0.25 2.663,0.407 0.239,0.043 0.48,0.084 0.718,0.131 0.331,0.064 0.66,0.132 0.989,0.203 0.636,0.139 1.271,0.283 1.899,0.447 0.002,0 0.005,0.001 0.007,0.001 5.218,2.573 6.967,5.126 7.059,5.265 0.016,0.024 0.019,0.051 0.031,0.076 19.823,4.553 21.344,18.283 21.425,21.827 1.595,1.839 5.356,6.791 8.504,15.615 v 10e-4 c 0.102,0.823 0.18,1.654 0.246,2.488 0.02,0.274 0.044,0.546 0.061,0.821 0.019,0.308 0.032,0.617 0.046,0.927 0.028,0.71 0.053,1.422 0.053,2.141 0,0.778 -0.024,1.551 -0.058,2.321 -0.009,0.204 -0.02,0.408 -0.031,0.612 -0.038,0.681 -0.088,1.36 -0.152,2.033 -0.009,0.094 -0.015,0.187 -0.024,0.281 -0.075,0.743 -0.17,1.48 -0.276,2.213 -0.031,0.211 -0.064,0.42 -0.097,0.629 -0.094,0.597 -0.198,1.188 -0.311,1.777 -0.032,0.162 -0.059,0.325 -0.092,0.486 -0.142,0.699 -0.301,1.391 -0.471,2.079 -0.055,0.223 -0.115,0.444 -0.172,0.665 -0.137,0.521 -0.281,1.038 -0.433,1.552 -0.063,0.212 -0.123,0.426 -0.188,0.637 -0.202,0.65 -0.416,1.293 -0.642,1.931 -0.084,0.236 -0.172,0.469 -0.259,0.703 -0.169,0.455 -0.344,0.906 -0.524,1.354 -0.1,0.247 -0.198,0.496 -0.302,0.741 -0.253,0.6 -0.517,1.196 -0.792,1.784 -0.112,0.24 -0.23,0.475 -0.346,0.713 -0.198,0.407 -0.401,0.81 -0.609,1.21 -0.135,0.26 -0.27,0.519 -0.409,0.776 -0.303,0.558 -0.613,1.111 -0.935,1.656 l -0.003,0.004 c 0.491,-1.875 2.124,-8.614 0.886,-10.782 -5.008,1.348 -11.474,1.433 -13.692,1.419 C 14.639,-10.626 4.391,-2.134 1.276,-0.333 1.27,0.816 1.039,10.606 0.975,13.288 c 3.358,0.489 11.337,-1.22 11.337,-1.22 0.005,0.014 0.01,0.026 0.015,0.038 -7.634,4.846 -16.644,7.653 -26.301,7.653 -0.231,0 -0.459,-0.014 -0.689,-0.018 z"
                            style="fill:#004d68;fill-opacity:1;fill-rule:nonzero;stroke:none"
                            id="path3861"
                    />
                </g>
                <g
                        id="g3863">
                    <g
                            id="g3865"/>
                    <g
                            id="g3877">
                        <g
                                clip-path="url(#clipPath3869)"
                                id="g3875"
                                style="opacity:0.10000598">
                            <g
                                    transform="translate(141.6499,447.103)"
                                    id="g3873">
                                <path
                                        d="m 0,0 c 19.686,-6.777 33.864,-25.731 33.864,-48.07 0,-28.025 -22.305,-50.745 -49.819,-50.745 -1.621,0 -3.223,0.086 -4.804,0.24 5.01,-1.725 10.372,-2.675 15.954,-2.675 27.514,0 49.819,22.72 49.819,50.745 C 45.014,-24.132 25.259,-2.463 0,0"
                                        style="fill:#000000;fill-opacity:1;fill-rule:nonzero;stroke:none"
                                        id="path3871"
                                />
                            </g>
                        </g>
                    </g>
                </g>
                <path
                        d="M 212.767,324.456 H 60.924 v 62.121 h 151.843 z"
                        style="fill:#f4554b;fill-opacity:1;fill-rule:nonzero;stroke:none"
                        id="path3879"
                />
            </g>
        </g>
        <g
                aria-label="PVABG"
                transform="scale(1.0516687,0.9508698)"
                style="font-variant:normal;font-weight:normal;font-stretch:condensed;font-size:23.4226284px;font-family:FortySecondStreetHB;-inkscape-font-specification:FortySecondStreetHB;writing-mode:lr-tb;display:inline;fill:#ffffff;fill-opacity:1;fill-rule:nonzero;stroke:none;stroke-width:2;stroke-miterlimit:4;stroke-dasharray:none"
                id="text3883">
            <g
                    id="g898" fill="white"
                    stroke="black"
                    stroke-width="2">
                <path

                        id="path882"
                        style="stroke:#000000;stroke-width:2;stroke-miterlimit:4;stroke-dasharray:none;stroke-opacity:1"
                        d="m 43.972505,149.52816 h 8.763368 c 2.369967,0 4.18878,0.18602 5.456437,0.55805 1.281435,0.37203 2.239067,0.9094 2.872896,1.61213 0.647607,0.70272 1.081642,1.55701 1.302104,2.56287 0.234241,0.99208 0.351362,2.53531 0.351362,4.6297 v 2.91423 c 0,2.13573 -0.220462,3.69274 -0.661387,4.67105 -0.440924,0.9783 -1.253878,1.72925 -2.438861,2.25284 -1.171205,0.5236 -2.707551,0.7854 -4.609036,0.7854 h -2.33552 v 13.47574 h -8.701363 z m 8.701363,5.72513 v 8.51535 c 0.24802,0.0138 0.461593,0.0207 0.640718,0.0207 0.799175,0 1.350331,-0.1929 1.653466,-0.57871 0.316914,-0.39959 0.475371,-1.21943 0.475371,-2.45953 v -2.74889 c 0,-1.14365 -0.179125,-1.88774 -0.537376,-2.23221 -0.358251,-0.34447 -1.102311,-0.51671 -2.232179,-0.51671 z"/>
                <path

                        id="path884"
                        style="stroke:#000000;stroke-width:2;stroke-miterlimit:4;stroke-dasharray:none;stroke-opacity:1"
                        d="m 85.88786,149.52816 -4.423021,33.46201 H 68.257782 l -5.022401,-33.46201 h 9.176734 q 1.59146,13.82711 2.273515,23.37587 0.682055,-9.6521 1.426114,-17.1547 l 0.599381,-6.22117 z"/>
                <path

                        id="path886"
                        style="stroke:#000000;stroke-width:2;stroke-miterlimit:4;stroke-dasharray:none;stroke-opacity:1"
                        d="m 101.82313,149.52816 4.98107,33.46201 h -8.908046 l -0.434035,-6.01448 h -3.120916 l -0.516708,6.01448 h -9.011388 l 4.42302,-33.46201 z m -4.609031,21.51572 q -0.661386,-5.68378 -1.322772,-14.03379 -1.322773,9.59011 -1.653466,14.03379 z"/>
                <path

                        id="path888"
                        style="stroke:#000000;stroke-width:2;stroke-miterlimit:4;stroke-dasharray:none;stroke-opacity:1"
                        d="m 108.29231,149.52816 h 8.6807 q 4.11299,0 6.22116,0.64072 2.12884,0.64072 3.43094,2.60421 1.30211,1.94282 1.30211,6.28317 0,2.9349 -0.93008,4.09233 -0.9094,1.15742 -3.61695,1.77747 3.01757,0.68206 4.09233,2.27352 1.07475,1.57079 1.07475,4.83638 v 3.10025 q 0,3.38961 -0.7854,5.0224 -0.76473,1.6328 -2.45953,2.23218 -1.6948,0.59938 -6.94455,0.59938 h -10.06548 z m 8.70137,5.72513 v 7.44059 q 0.55804,-0.0207 0.86807,-0.0207 1.28143,0 1.63279,-0.62005 0.35137,-0.64071 0.35137,-3.61695 0,-1.57079 -0.28936,-2.19084 -0.28936,-0.64072 -0.76473,-0.80607 -0.4547,-0.16534 -1.79814,-0.18601 z m 0,12.64901 v 9.36275 q 1.83948,-0.062 2.33552,-0.57871 0.51671,-0.51671 0.51671,-2.54221 v -3.12091 q 0,-2.14951 -0.45471,-2.60421 -0.4547,-0.45471 -2.39752,-0.51671 z"/>
                <path

                        id="path890"
                        style="stroke:#000000;stroke-width:2;stroke-miterlimit:4;stroke-dasharray:none;stroke-opacity:1"
                        d="m 151.65446,161.84648 h -8.70137 v -3.03824 q 0,-2.8729 -0.24802,-3.59629 -0.24802,-0.72339 -1.17809,-0.72339 -0.80606,0 -1.09542,0.62005 -0.28936,0.62005 -0.28936,3.18292 v 16.05929 q 0,2.25284 0.28936,2.97623 0.28936,0.70273 1.15743,0.70273 0.95074,0 1.28143,-0.80607 0.35136,-0.80606 0.35136,-3.14158 v -3.96832 h -1.7568 v -5.08441 h 10.18948 v 17.96077 h -5.47711 l -0.80606,-2.39752 q -0.88874,1.55012 -2.25285,2.33552 -1.34344,0.76473 -3.18292,0.76473 -2.19084,0 -4.113,-1.05409 -1.90148,-1.07475 -2.89356,-2.64554 -0.99208,-1.5708 -1.2401,-3.28627 -0.24802,-1.73613 -0.24802,-5.18774 v -9.94147 q 0,-4.79505 0.51671,-6.96522 0.51671,-2.17017 2.95557,-3.96832 2.45953,-1.81881 6.34517,-1.81881 3.82364,0 6.34518,1.57079 2.52153,1.57079 3.28626,3.74097 0.76473,2.1495 0.76473,6.2625 z"/>
            </g>
        </g>
        <g
                style="stroke:#ffffff;stroke-width:8.01806355;stroke-miterlimit:4;stroke-dasharray:none;stroke-opacity:1"
                id="g5182"
                transform="matrix(0.17330596,0,0,-0.17330597,102.11345,185.05911)">
            <path
                    d="m 0,0 c -34.88,0 -63.257,-28.377 -63.257,-63.258 0,-34.879 28.377,-63.256 63.257,-63.256 34.881,0 63.258,28.377 63.258,63.256 C 63.258,-28.377 34.881,0 0,0 m 0,-131.514 c -37.637,0 -68.257,30.62 -68.257,68.256 C -68.257,-25.62 -37.637,5 0,5 37.637,5 68.258,-25.62 68.258,-63.258 68.258,-100.894 37.637,-131.514 0,-131.514"
                    style="fill:#ffffff;fill-opacity:1;fill-rule:nonzero;stroke:#ffffff;stroke-width:8.01806355;stroke-miterlimit:4;stroke-dasharray:none;stroke-opacity:1"
                    id="path5184"
            />
        </g>
        <g
                style="stroke:#ffffff;stroke-width:8.01806355;stroke-miterlimit:4;stroke-dasharray:none;stroke-opacity:1"
                id="g5186"
                transform="matrix(0.17330596,0,0,-0.17330597,98.808708,196.02197)">
            <path
                    d="m 0,0 v 22.92 c 0,4.316 4.672,7.014 8.41,4.856 L 28.26,16.315 48.109,4.854 c 3.739,-2.157 3.739,-7.552 0,-9.71 L 28.26,-16.316 8.41,-27.776 C 4.672,-29.934 0,-27.236 0,-22.92 Z"
                    style="fill:#ffffff;fill-opacity:1;fill-rule:nonzero;stroke:#ffffff;stroke-width:8.01806355;stroke-miterlimit:4;stroke-dasharray:none;stroke-opacity:1"
                    id="path5188"
            />
        </g>
    </g>
</svg>
